<?xml version="1.0" encoding="UTF-8"?>
<svg id="Layer_2" data-name="Layer 2" xmlns="http://www.w3.org/2000/svg" xmlns:xlink="http://www.w3.org/1999/xlink" viewBox="0 0 128.86 100.49">
  <defs>
    <style>
      .cls-1, .cls-2 {
        fill: none;
      }

      .cls-3 {
        fill: #1c3d44;
      }

      .cls-4 {
        fill: #f8d000;
      }

      .cls-5 {
        clip-path: url(#clippath-1);
      }

      .cls-6 {
        fill: #992e2e;
      }

      .cls-2 {
        stroke: #b54343;
        stroke-miterlimit: 10;
        stroke-width: 1.06px;
      }

      .cls-7 {
        fill: #fefefe;
      }

      .cls-8 {
        fill: #378171;
      }

      .cls-9 {
        clip-path: url(#clippath);
      }
    </style>
    <clipPath id="clippath">
      <path class="cls-3" d="M2.59,85.28s2.06-46.99,5.49-61.39l3.43-14.4s96.01,5.82,117.35,13.34c0,0-3.51,70.99-8.75,77.66,0,0-100.31-5.63-117.51-15.2Z"/>
    </clipPath>
    <clipPath id="clippath-1">
      <path class="cls-1" d="M0,75.79S2.06,28.8,5.49,14.4L8.92,0s96.01,5.82,117.35,13.34c0,0-3.51,70.99-8.75,77.66,0,0-100.31-5.63-117.51-15.2Z"/>
    </clipPath>
  </defs>
  <g id="OBJECTS">
    <g>
      <g>
        <path class="cls-3" d="M2.59,85.28s2.06-46.99,5.49-61.39l3.43-14.4s96.01,5.82,117.35,13.34c0,0-3.51,70.99-8.75,77.66,0,0-100.31-5.63-117.51-15.2Z"/>
        <g>
          <path class="cls-3" d="M2.59,85.28s2.06-46.99,5.49-61.39l3.43-14.4s96.01,5.82,117.35,13.34c0,0-3.51,70.99-8.75,77.66,0,0-100.31-5.63-117.51-15.2Z"/>
          <g class="cls-9">
            <g>
              <path class="cls-3" d="M-3.83,89.23S63.13,53.44,70.18,54.51c7.05,1.07,52.55,50.26,52.55,50.26"/>
              <path class="cls-3" d="M11.51,9.49s49.51,60.49,59.71,61.09c10.2.6,58.62-49.34,58.62-49.34,0,0-85.69-21.02-118.34-11.75Z"/>
              <path class="cls-3" d="M11.01,3.9s49.51,60.49,59.71,61.09,58.62-49.34,58.62-49.34c0,0-85.69-21.02-118.34-11.75Z"/>
              <path class="cls-3" d="M72.76,49.51s7.03,3.03,7.37,1.59c.34-1.44-4.9-7.56-4.9-7.56,0,0,4.6.49,4.94-.95.34-1.44-6.36-7.74-6.36-7.74,0,0,4.03.96,4.38-.48.69-2.88-5.13-9.13-5.13-9.13,0,0-12.34,7.1-8.02,8.13,4.32,1.03,3.69.41,3.69.41,0,0-12.14,6.24-8.39,7.13l3.74.89s-9.99,6.14-5.88,6.82c4.1.67,7.51-.17,7.51-.17,0,0-1.14,7.34,1.45,7.95,2.59.62,3.24.47,3.24.47l2.36-7.35Z"/>
            </g>
          </g>
        </g>
        <path class="cls-3" d="M55.08,35.09c-1.21-.41-2.27-.91-2.89-1.66-.59.75-1.69,1.16-3,1.44-.03-1.33.06-2.55.68-3.26-1.01-.14-1.73-1.06-2.3-2.41,1.21-.55,2.36-.87,3.31-.36.05-.97.73-1.95,1.58-2.93.72.86,1.17,1.87,1.36,3.04,1.03-.23,2.14.07,3.28.6-.64.88-1.4,1.67-2.47,2.24.63.9.62,2.07.44,3.3Z"/>
        <path class="cls-3" d="M93.27,41.22c-.76-.64-1.39-1.29-1.63-2-.64.38-1.55.37-2.57.21.35-.97.75-1.82,1.4-2.17-.69-.38-.96-1.25-.99-2.38,1.03-.06,1.95.03,2.49.66.31-.69,1.07-1.21,1.96-1.68.28.82.33,1.68.14,2.58.81.12,1.52.65,2.2,1.35-.71.46-1.48.82-2.41.93.21.83-.13,1.67-.6,2.51Z"/>
        <path class="cls-3" d="M58.89,45.7c-.14-.03-.23-.17-.2-.31.03-.14.16-.23.3-.21,0,0,.03,0,.07.01,1.57.17,17.63-4.03,19.44-5.06-1.17-.61-8.25-1.94-14.84-2.97-.18-.01-.35-.04-.49-.08-.14-.04-.22-.17-.19-.31.03-.14.16-.23.3-.21.15.02.32.05.5.08,2.89.18,10.99-2.97,13.45-3.96-2.84-.9-9.31-3.65-9.61-3.78-.13-.06-.2-.21-.14-.35.06-.13.22-.19.35-.14.08.03,8.11,3.45,10.27,3.96.11.03.19.12.2.24,0,.11-.06.22-.16.27-.39.16-7.85,3.25-12.32,4.08,4.77.78,12.7,2.17,13.26,2.95.08.11.08.21.07.28-.03.16-.16.26-.27.33-1.38.9-13.26,4.07-18.06,4.96,4.53.75,16.08,2.64,18.22,2.75.15,0,.26.13.25.28,0,.15-.13.26-.28.25-2.66-.13-19.05-2.88-20.07-3.05-.02,0-.03,0-.04,0Z"/>
      </g>
      <g>
        <path class="cls-6" d="M0,75.79S2.06,28.8,5.49,14.4L8.92,0s96.01,5.82,117.35,13.34c0,0-3.51,70.99-8.75,77.66,0,0-100.31-5.63-117.51-15.2Z"/>
        <g class="cls-5">
          <g>
            <path class="cls-2" d="M-6.42,79.74S60.54,43.95,67.59,45.02c7.05,1.07,52.55,50.26,52.55,50.26"/>
            <path class="cls-7" d="M8.92,0s49.51,60.49,59.71,61.09c10.2.6,58.62-49.34,58.62-49.34,0,0-85.69-21.02-118.34-11.75Z"/>
            <path class="cls-2" d="M8.43-5.6s49.51,60.49,59.71,61.09S126.76,6.15,126.76,6.15c0,0-85.69-21.02-118.34-11.75Z"/>
            <path class="cls-8" d="M70.17,40.02s7.03,3.03,7.37,1.59c.34-1.44-4.9-7.56-4.9-7.56,0,0,4.6.49,4.94-.95.34-1.44-6.36-7.74-6.36-7.74,0,0,4.03.96,4.38-.48.69-2.88-5.13-9.13-5.13-9.13,0,0-12.34,7.1-8.02,8.13,4.32,1.03,3.69.41,3.69.41,0,0-12.14,6.24-8.39,7.13l3.74.89s-9.99,6.14-5.88,6.82c4.1.67,7.51-.17,7.51-.17,0,0-1.14,7.34,1.45,7.95,2.59.62,3.24.47,3.24.47l2.36-7.35Z"/>
          </g>
        </g>
        <path class="cls-4" d="M52.49,25.6c-1.21-.41-2.27-.91-2.89-1.66-.59.75-1.69,1.16-3,1.44-.03-1.33.06-2.55.68-3.26-1.01-.14-1.73-1.06-2.3-2.41,1.21-.55,2.36-.87,3.31-.36.05-.97.73-1.95,1.58-2.93.72.86,1.17,1.87,1.36,3.04,1.03-.23,2.14.07,3.28.6-.64.88-1.4,1.68-2.47,2.24.63.9.62,2.07.44,3.3Z"/>
        <path class="cls-4" d="M90.68,31.73c-.76-.64-1.39-1.29-1.63-2-.64.38-1.55.37-2.57.21.35-.97.75-1.82,1.4-2.17-.69-.38-.96-1.25-.99-2.38,1.03-.06,1.95.03,2.49.66.31-.69,1.07-1.21,1.96-1.68.28.82.33,1.68.14,2.58.81.12,1.52.65,2.2,1.35-.71.46-1.48.82-2.41.93.21.83-.13,1.67-.6,2.51Z"/>
        <path class="cls-7" d="M56.3,36.21c-.14-.03-.23-.17-.2-.31.03-.14.16-.23.3-.21,0,0,.03,0,.07.01,1.57.17,17.63-4.03,19.44-5.06-1.17-.61-8.25-1.94-14.84-2.97-.18-.01-.35-.04-.49-.08-.14-.04-.22-.17-.19-.31.03-.14.16-.23.3-.21.15.02.32.05.5.08,2.89.18,11-2.97,13.45-3.96-2.84-.9-9.31-3.65-9.61-3.78-.13-.06-.2-.21-.14-.35.06-.13.22-.19.35-.14.08.03,8.11,3.45,10.27,3.96.11.03.19.12.2.24,0,.11-.06.22-.16.27-.39.16-7.85,3.25-12.32,4.08,4.77.78,12.7,2.17,13.26,2.95.08.11.08.21.07.28-.03.16-.16.26-.27.33-1.38.9-13.26,4.07-18.06,4.96,4.53.75,16.08,2.64,18.22,2.75.15,0,.26.13.25.28,0,.15-.13.26-.28.25-2.66-.13-19.05-2.88-20.07-3.05-.02,0-.03,0-.04,0Z"/>
      </g>
    </g>
  </g>
</svg>